<?xml version="1.0" encoding="utf-8" standalone="no"?>
<!DOCTYPE svg PUBLIC "-//W3C//DTD SVG 1.1//EN"
  "http://www.w3.org/Graphics/SVG/1.1/DTD/svg11.dtd">
<svg xmlns:xlink="http://www.w3.org/1999/xlink" width="856.728125pt" height="712.15625pt" viewBox="0 0 856.728125 712.15625" xmlns="http://www.w3.org/2000/svg" version="1.1">
 <metadata>
  <rdf:RDF xmlns:dc="http://purl.org/dc/elements/1.1/" xmlns:cc="http://creativecommons.org/ns#" xmlns:rdf="http://www.w3.org/1999/02/22-rdf-syntax-ns#">
   <cc:Work>
    <dc:type rdf:resource="http://purl.org/dc/dcmitype/StillImage"/>
    <dc:date>2025-11-25T17:36:50.212797</dc:date>
    <dc:format>image/svg+xml</dc:format>
    <dc:creator>
     <cc:Agent>
      <dc:title>Matplotlib v3.10.1, https://matplotlib.org/</dc:title>
     </cc:Agent>
    </dc:creator>
   </cc:Work>
  </rdf:RDF>
 </metadata>
 <defs>
  <style type="text/css">*{stroke-linejoin: round; stroke-linecap: butt}</style>
 </defs>
 <g id="figure_1">
  <g id="patch_1">
   <path d="M 0 712.15625 
L 856.728125 712.15625 
L 856.728125 0 
L 0 0 
z
" style="fill: #ffffff"/>
  </g>
  <g id="axes_1">
   <g id="patch_2">
    <path d="M 30.103125 339.378125 
L 422.928125 339.378125 
L 422.928125 22.318125 
L 30.103125 22.318125 
z
" style="fill: #ffffff"/>
   </g>
   <g id="patch_3">
    <path d="M 47.958807 339.378125 
L 107.477746 339.378125 
L 107.477746 339.378125 
L 47.958807 339.378125 
z
" clip-path="url(#pf0568f6c58)" style="fill: #1f77b4"/>
   </g>
   <g id="patch_4">
    <path d="M 122.357481 339.378125 
L 181.87642 339.378125 
L 181.87642 339.378125 
L 122.357481 339.378125 
z
" clip-path="url(#pf0568f6c58)" style="fill: #1f77b4"/>
   </g>
   <g id="patch_5">
    <path d="M 196.756155 339.378125 
L 256.275095 339.378125 
L 256.275095 339.378125 
L 196.756155 339.378125 
z
" clip-path="url(#pf0568f6c58)" style="fill: #1f77b4"/>
   </g>
   <g id="patch_6">
    <path d="M 271.15483 339.378125 
L 330.673769 339.378125 
L 330.673769 339.378125 
L 271.15483 339.378125 
z
" clip-path="url(#pf0568f6c58)" style="fill: #1f77b4"/>
   </g>
   <g id="patch_7">
    <path d="M 345.553504 339.378125 
L 405.072443 339.378125 
L 405.072443 339.378125 
L 345.553504 339.378125 
z
" clip-path="url(#pf0568f6c58)" style="fill: #1f77b4"/>
   </g>
   <g id="matplotlib.axis_1">
    <g id="xtick_1">
     <g id="line2d_1">
      <defs>
       <path id="m90d67d278c" d="M 0 0 
L 0 3.5 
" style="stroke: #000000; stroke-width: 0.8"/>
      </defs>
      <g>
       <use xlink:href="#m90d67d278c" x="77.718277" y="339.378125" style="stroke: #000000; stroke-width: 0.8"/>
      </g>
     </g>
     <g id="text_1">
      <!-- TYPE1 -->
      <g transform="translate(62.254995 353.976562) scale(0.1 -0.1)">
       <defs>
        <path id="DejaVuSans-54" d="M -19 4666 
L 3928 4666 
L 3928 4134 
L 2272 4134 
L 2272 0 
L 1638 0 
L 1638 4134 
L -19 4134 
L -19 4666 
z
" transform="scale(0.015625)"/>
        <path id="DejaVuSans-59" d="M -13 4666 
L 666 4666 
L 1959 2747 
L 3244 4666 
L 3922 4666 
L 2272 2222 
L 2272 0 
L 1638 0 
L 1638 2222 
L -13 4666 
z
" transform="scale(0.015625)"/>
        <path id="DejaVuSans-50" d="M 1259 4147 
L 1259 2394 
L 2053 2394 
Q 2494 2394 2734 2622 
Q 2975 2850 2975 3272 
Q 2975 3691 2734 3919 
Q 2494 4147 2053 4147 
L 1259 4147 
z
M 628 4666 
L 2053 4666 
Q 2838 4666 3239 4311 
Q 3641 3956 3641 3272 
Q 3641 2581 3239 2228 
Q 2838 1875 2053 1875 
L 1259 1875 
L 1259 0 
L 628 0 
L 628 4666 
z
" transform="scale(0.015625)"/>
        <path id="DejaVuSans-45" d="M 628 4666 
L 3578 4666 
L 3578 4134 
L 1259 4134 
L 1259 2753 
L 3481 2753 
L 3481 2222 
L 1259 2222 
L 1259 531 
L 3634 531 
L 3634 0 
L 628 0 
L 628 4666 
z
" transform="scale(0.015625)"/>
        <path id="DejaVuSans-31" d="M 794 531 
L 1825 531 
L 1825 4091 
L 703 3866 
L 703 4441 
L 1819 4666 
L 2450 4666 
L 2450 531 
L 3481 531 
L 3481 0 
L 794 0 
L 794 531 
z
" transform="scale(0.015625)"/>
       </defs>
       <use xlink:href="#DejaVuSans-54"/>
       <use xlink:href="#DejaVuSans-59" transform="translate(61.083984 0)"/>
       <use xlink:href="#DejaVuSans-50" transform="translate(122.167969 0)"/>
       <use xlink:href="#DejaVuSans-45" transform="translate(182.470703 0)"/>
       <use xlink:href="#DejaVuSans-31" transform="translate(245.654297 0)"/>
      </g>
     </g>
    </g>
    <g id="xtick_2">
     <g id="line2d_2">
      <g>
       <use xlink:href="#m90d67d278c" x="152.116951" y="339.378125" style="stroke: #000000; stroke-width: 0.8"/>
      </g>
     </g>
     <g id="text_2">
      <!-- TYPE2 -->
      <g transform="translate(136.65367 353.976562) scale(0.1 -0.1)">
       <defs>
        <path id="DejaVuSans-32" d="M 1228 531 
L 3431 531 
L 3431 0 
L 469 0 
L 469 531 
Q 828 903 1448 1529 
Q 2069 2156 2228 2338 
Q 2531 2678 2651 2914 
Q 2772 3150 2772 3378 
Q 2772 3750 2511 3984 
Q 2250 4219 1831 4219 
Q 1534 4219 1204 4116 
Q 875 4013 500 3803 
L 500 4441 
Q 881 4594 1212 4672 
Q 1544 4750 1819 4750 
Q 2544 4750 2975 4387 
Q 3406 4025 3406 3419 
Q 3406 3131 3298 2873 
Q 3191 2616 2906 2266 
Q 2828 2175 2409 1742 
Q 1991 1309 1228 531 
z
" transform="scale(0.015625)"/>
       </defs>
       <use xlink:href="#DejaVuSans-54"/>
       <use xlink:href="#DejaVuSans-59" transform="translate(61.083984 0)"/>
       <use xlink:href="#DejaVuSans-50" transform="translate(122.167969 0)"/>
       <use xlink:href="#DejaVuSans-45" transform="translate(182.470703 0)"/>
       <use xlink:href="#DejaVuSans-32" transform="translate(245.654297 0)"/>
      </g>
     </g>
    </g>
    <g id="xtick_3">
     <g id="line2d_3">
      <g>
       <use xlink:href="#m90d67d278c" x="226.515625" y="339.378125" style="stroke: #000000; stroke-width: 0.8"/>
      </g>
     </g>
     <g id="text_3">
      <!-- TYPE3 -->
      <g transform="translate(211.052344 353.976562) scale(0.1 -0.1)">
       <defs>
        <path id="DejaVuSans-33" d="M 2597 2516 
Q 3050 2419 3304 2112 
Q 3559 1806 3559 1356 
Q 3559 666 3084 287 
Q 2609 -91 1734 -91 
Q 1441 -91 1130 -33 
Q 819 25 488 141 
L 488 750 
Q 750 597 1062 519 
Q 1375 441 1716 441 
Q 2309 441 2620 675 
Q 2931 909 2931 1356 
Q 2931 1769 2642 2001 
Q 2353 2234 1838 2234 
L 1294 2234 
L 1294 2753 
L 1863 2753 
Q 2328 2753 2575 2939 
Q 2822 3125 2822 3475 
Q 2822 3834 2567 4026 
Q 2313 4219 1838 4219 
Q 1578 4219 1281 4162 
Q 984 4106 628 3988 
L 628 4550 
Q 988 4650 1302 4700 
Q 1616 4750 1894 4750 
Q 2613 4750 3031 4423 
Q 3450 4097 3450 3541 
Q 3450 3153 3228 2886 
Q 3006 2619 2597 2516 
z
" transform="scale(0.015625)"/>
       </defs>
       <use xlink:href="#DejaVuSans-54"/>
       <use xlink:href="#DejaVuSans-59" transform="translate(61.083984 0)"/>
       <use xlink:href="#DejaVuSans-50" transform="translate(122.167969 0)"/>
       <use xlink:href="#DejaVuSans-45" transform="translate(182.470703 0)"/>
       <use xlink:href="#DejaVuSans-33" transform="translate(245.654297 0)"/>
      </g>
     </g>
    </g>
    <g id="xtick_4">
     <g id="line2d_4">
      <g>
       <use xlink:href="#m90d67d278c" x="300.914299" y="339.378125" style="stroke: #000000; stroke-width: 0.8"/>
      </g>
     </g>
     <g id="text_4">
      <!-- TYPE4 -->
      <g transform="translate(285.451018 353.976562) scale(0.1 -0.1)">
       <defs>
        <path id="DejaVuSans-34" d="M 2419 4116 
L 825 1625 
L 2419 1625 
L 2419 4116 
z
M 2253 4666 
L 3047 4666 
L 3047 1625 
L 3713 1625 
L 3713 1100 
L 3047 1100 
L 3047 0 
L 2419 0 
L 2419 1100 
L 313 1100 
L 313 1709 
L 2253 4666 
z
" transform="scale(0.015625)"/>
       </defs>
       <use xlink:href="#DejaVuSans-54"/>
       <use xlink:href="#DejaVuSans-59" transform="translate(61.083984 0)"/>
       <use xlink:href="#DejaVuSans-50" transform="translate(122.167969 0)"/>
       <use xlink:href="#DejaVuSans-45" transform="translate(182.470703 0)"/>
       <use xlink:href="#DejaVuSans-34" transform="translate(245.654297 0)"/>
      </g>
     </g>
    </g>
    <g id="xtick_5">
     <g id="line2d_5">
      <g>
       <use xlink:href="#m90d67d278c" x="375.312973" y="339.378125" style="stroke: #000000; stroke-width: 0.8"/>
      </g>
     </g>
     <g id="text_5">
      <!-- AFGP -->
      <g transform="translate(362.127817 353.976562) scale(0.1 -0.1)">
       <defs>
        <path id="DejaVuSans-41" d="M 2188 4044 
L 1331 1722 
L 3047 1722 
L 2188 4044 
z
M 1831 4666 
L 2547 4666 
L 4325 0 
L 3669 0 
L 3244 1197 
L 1141 1197 
L 716 0 
L 50 0 
L 1831 4666 
z
" transform="scale(0.015625)"/>
        <path id="DejaVuSans-46" d="M 628 4666 
L 3309 4666 
L 3309 4134 
L 1259 4134 
L 1259 2759 
L 3109 2759 
L 3109 2228 
L 1259 2228 
L 1259 0 
L 628 0 
L 628 4666 
z
" transform="scale(0.015625)"/>
        <path id="DejaVuSans-47" d="M 3809 666 
L 3809 1919 
L 2778 1919 
L 2778 2438 
L 4434 2438 
L 4434 434 
Q 4069 175 3628 42 
Q 3188 -91 2688 -91 
Q 1594 -91 976 548 
Q 359 1188 359 2328 
Q 359 3472 976 4111 
Q 1594 4750 2688 4750 
Q 3144 4750 3555 4637 
Q 3966 4525 4313 4306 
L 4313 3634 
Q 3963 3931 3569 4081 
Q 3175 4231 2741 4231 
Q 1884 4231 1454 3753 
Q 1025 3275 1025 2328 
Q 1025 1384 1454 906 
Q 1884 428 2741 428 
Q 3075 428 3337 486 
Q 3600 544 3809 666 
z
" transform="scale(0.015625)"/>
       </defs>
       <use xlink:href="#DejaVuSans-41"/>
       <use xlink:href="#DejaVuSans-46" transform="translate(68.408203 0)"/>
       <use xlink:href="#DejaVuSans-47" transform="translate(125.927734 0)"/>
       <use xlink:href="#DejaVuSans-50" transform="translate(203.417969 0)"/>
      </g>
     </g>
    </g>
   </g>
   <g id="matplotlib.axis_2">
    <g id="ytick_1">
     <g id="line2d_6">
      <defs>
       <path id="ma1ca108588" d="M 0 0 
L -3.5 0 
" style="stroke: #000000; stroke-width: 0.8"/>
      </defs>
      <g>
       <use xlink:href="#ma1ca108588" x="30.103125" y="339.378125" style="stroke: #000000; stroke-width: 0.8"/>
      </g>
     </g>
     <g id="text_6">
      <!-- 0.0 -->
      <g transform="translate(7.2 343.177344) scale(0.1 -0.1)">
       <defs>
        <path id="DejaVuSans-30" d="M 2034 4250 
Q 1547 4250 1301 3770 
Q 1056 3291 1056 2328 
Q 1056 1369 1301 889 
Q 1547 409 2034 409 
Q 2525 409 2770 889 
Q 3016 1369 3016 2328 
Q 3016 3291 2770 3770 
Q 2525 4250 2034 4250 
z
M 2034 4750 
Q 2819 4750 3233 4129 
Q 3647 3509 3647 2328 
Q 3647 1150 3233 529 
Q 2819 -91 2034 -91 
Q 1250 -91 836 529 
Q 422 1150 422 2328 
Q 422 3509 836 4129 
Q 1250 4750 2034 4750 
z
" transform="scale(0.015625)"/>
        <path id="DejaVuSans-2e" d="M 684 794 
L 1344 794 
L 1344 0 
L 684 0 
L 684 794 
z
" transform="scale(0.015625)"/>
       </defs>
       <use xlink:href="#DejaVuSans-30"/>
       <use xlink:href="#DejaVuSans-2e" transform="translate(63.623047 0)"/>
       <use xlink:href="#DejaVuSans-30" transform="translate(95.410156 0)"/>
      </g>
     </g>
    </g>
    <g id="ytick_2">
     <g id="line2d_7">
      <g>
       <use xlink:href="#ma1ca108588" x="30.103125" y="275.966125" style="stroke: #000000; stroke-width: 0.8"/>
      </g>
     </g>
     <g id="text_7">
      <!-- 0.2 -->
      <g transform="translate(7.2 279.765344) scale(0.1 -0.1)">
       <use xlink:href="#DejaVuSans-30"/>
       <use xlink:href="#DejaVuSans-2e" transform="translate(63.623047 0)"/>
       <use xlink:href="#DejaVuSans-32" transform="translate(95.410156 0)"/>
      </g>
     </g>
    </g>
    <g id="ytick_3">
     <g id="line2d_8">
      <g>
       <use xlink:href="#ma1ca108588" x="30.103125" y="212.554125" style="stroke: #000000; stroke-width: 0.8"/>
      </g>
     </g>
     <g id="text_8">
      <!-- 0.4 -->
      <g transform="translate(7.2 216.353344) scale(0.1 -0.1)">
       <use xlink:href="#DejaVuSans-30"/>
       <use xlink:href="#DejaVuSans-2e" transform="translate(63.623047 0)"/>
       <use xlink:href="#DejaVuSans-34" transform="translate(95.410156 0)"/>
      </g>
     </g>
    </g>
    <g id="ytick_4">
     <g id="line2d_9">
      <g>
       <use xlink:href="#ma1ca108588" x="30.103125" y="149.142125" style="stroke: #000000; stroke-width: 0.8"/>
      </g>
     </g>
     <g id="text_9">
      <!-- 0.6 -->
      <g transform="translate(7.2 152.941344) scale(0.1 -0.1)">
       <defs>
        <path id="DejaVuSans-36" d="M 2113 2584 
Q 1688 2584 1439 2293 
Q 1191 2003 1191 1497 
Q 1191 994 1439 701 
Q 1688 409 2113 409 
Q 2538 409 2786 701 
Q 3034 994 3034 1497 
Q 3034 2003 2786 2293 
Q 2538 2584 2113 2584 
z
M 3366 4563 
L 3366 3988 
Q 3128 4100 2886 4159 
Q 2644 4219 2406 4219 
Q 1781 4219 1451 3797 
Q 1122 3375 1075 2522 
Q 1259 2794 1537 2939 
Q 1816 3084 2150 3084 
Q 2853 3084 3261 2657 
Q 3669 2231 3669 1497 
Q 3669 778 3244 343 
Q 2819 -91 2113 -91 
Q 1303 -91 875 529 
Q 447 1150 447 2328 
Q 447 3434 972 4092 
Q 1497 4750 2381 4750 
Q 2619 4750 2861 4703 
Q 3103 4656 3366 4563 
z
" transform="scale(0.015625)"/>
       </defs>
       <use xlink:href="#DejaVuSans-30"/>
       <use xlink:href="#DejaVuSans-2e" transform="translate(63.623047 0)"/>
       <use xlink:href="#DejaVuSans-36" transform="translate(95.410156 0)"/>
      </g>
     </g>
    </g>
    <g id="ytick_5">
     <g id="line2d_10">
      <g>
       <use xlink:href="#ma1ca108588" x="30.103125" y="85.730125" style="stroke: #000000; stroke-width: 0.8"/>
      </g>
     </g>
     <g id="text_10">
      <!-- 0.8 -->
      <g transform="translate(7.2 89.529344) scale(0.1 -0.1)">
       <defs>
        <path id="DejaVuSans-38" d="M 2034 2216 
Q 1584 2216 1326 1975 
Q 1069 1734 1069 1313 
Q 1069 891 1326 650 
Q 1584 409 2034 409 
Q 2484 409 2743 651 
Q 3003 894 3003 1313 
Q 3003 1734 2745 1975 
Q 2488 2216 2034 2216 
z
M 1403 2484 
Q 997 2584 770 2862 
Q 544 3141 544 3541 
Q 544 4100 942 4425 
Q 1341 4750 2034 4750 
Q 2731 4750 3128 4425 
Q 3525 4100 3525 3541 
Q 3525 3141 3298 2862 
Q 3072 2584 2669 2484 
Q 3125 2378 3379 2068 
Q 3634 1759 3634 1313 
Q 3634 634 3220 271 
Q 2806 -91 2034 -91 
Q 1263 -91 848 271 
Q 434 634 434 1313 
Q 434 1759 690 2068 
Q 947 2378 1403 2484 
z
M 1172 3481 
Q 1172 3119 1398 2916 
Q 1625 2713 2034 2713 
Q 2441 2713 2670 2916 
Q 2900 3119 2900 3481 
Q 2900 3844 2670 4047 
Q 2441 4250 2034 4250 
Q 1625 4250 1398 4047 
Q 1172 3844 1172 3481 
z
" transform="scale(0.015625)"/>
       </defs>
       <use xlink:href="#DejaVuSans-30"/>
       <use xlink:href="#DejaVuSans-2e" transform="translate(63.623047 0)"/>
       <use xlink:href="#DejaVuSans-38" transform="translate(95.410156 0)"/>
      </g>
     </g>
    </g>
    <g id="ytick_6">
     <g id="line2d_11">
      <g>
       <use xlink:href="#ma1ca108588" x="30.103125" y="22.318125" style="stroke: #000000; stroke-width: 0.8"/>
      </g>
     </g>
     <g id="text_11">
      <!-- 1.0 -->
      <g transform="translate(7.2 26.117344) scale(0.1 -0.1)">
       <use xlink:href="#DejaVuSans-31"/>
       <use xlink:href="#DejaVuSans-2e" transform="translate(63.623047 0)"/>
       <use xlink:href="#DejaVuSans-30" transform="translate(95.410156 0)"/>
      </g>
     </g>
    </g>
   </g>
   <g id="patch_8">
    <path d="M 30.103125 339.378125 
L 30.103125 22.318125 
" style="fill: none; stroke: #000000; stroke-width: 0.8; stroke-linejoin: miter; stroke-linecap: square"/>
   </g>
   <g id="patch_9">
    <path d="M 422.928125 339.378125 
L 422.928125 22.318125 
" style="fill: none; stroke: #000000; stroke-width: 0.8; stroke-linejoin: miter; stroke-linecap: square"/>
   </g>
   <g id="patch_10">
    <path d="M 30.103125 339.378125 
L 422.928125 339.378125 
" style="fill: none; stroke: #000000; stroke-width: 0.8; stroke-linejoin: miter; stroke-linecap: square"/>
   </g>
   <g id="patch_11">
    <path d="M 30.103125 22.318125 
L 422.928125 22.318125 
" style="fill: none; stroke: #000000; stroke-width: 0.8; stroke-linejoin: miter; stroke-linecap: square"/>
   </g>
   <g id="text_12">
    <!-- ROC-AUC by AFP Type -->
    <g transform="translate(160.685312 16.318125) scale(0.12 -0.12)">
     <defs>
      <path id="DejaVuSans-52" d="M 2841 2188 
Q 3044 2119 3236 1894 
Q 3428 1669 3622 1275 
L 4263 0 
L 3584 0 
L 2988 1197 
Q 2756 1666 2539 1819 
Q 2322 1972 1947 1972 
L 1259 1972 
L 1259 0 
L 628 0 
L 628 4666 
L 2053 4666 
Q 2853 4666 3247 4331 
Q 3641 3997 3641 3322 
Q 3641 2881 3436 2590 
Q 3231 2300 2841 2188 
z
M 1259 4147 
L 1259 2491 
L 2053 2491 
Q 2509 2491 2742 2702 
Q 2975 2913 2975 3322 
Q 2975 3731 2742 3939 
Q 2509 4147 2053 4147 
L 1259 4147 
z
" transform="scale(0.015625)"/>
      <path id="DejaVuSans-4f" d="M 2522 4238 
Q 1834 4238 1429 3725 
Q 1025 3213 1025 2328 
Q 1025 1447 1429 934 
Q 1834 422 2522 422 
Q 3209 422 3611 934 
Q 4013 1447 4013 2328 
Q 4013 3213 3611 3725 
Q 3209 4238 2522 4238 
z
M 2522 4750 
Q 3503 4750 4090 4092 
Q 4678 3434 4678 2328 
Q 4678 1225 4090 567 
Q 3503 -91 2522 -91 
Q 1538 -91 948 565 
Q 359 1222 359 2328 
Q 359 3434 948 4092 
Q 1538 4750 2522 4750 
z
" transform="scale(0.015625)"/>
      <path id="DejaVuSans-43" d="M 4122 4306 
L 4122 3641 
Q 3803 3938 3442 4084 
Q 3081 4231 2675 4231 
Q 1875 4231 1450 3742 
Q 1025 3253 1025 2328 
Q 1025 1406 1450 917 
Q 1875 428 2675 428 
Q 3081 428 3442 575 
Q 3803 722 4122 1019 
L 4122 359 
Q 3791 134 3420 21 
Q 3050 -91 2638 -91 
Q 1578 -91 968 557 
Q 359 1206 359 2328 
Q 359 3453 968 4101 
Q 1578 4750 2638 4750 
Q 3056 4750 3426 4639 
Q 3797 4528 4122 4306 
z
" transform="scale(0.015625)"/>
      <path id="DejaVuSans-2d" d="M 313 2009 
L 1997 2009 
L 1997 1497 
L 313 1497 
L 313 2009 
z
" transform="scale(0.015625)"/>
      <path id="DejaVuSans-55" d="M 556 4666 
L 1191 4666 
L 1191 1831 
Q 1191 1081 1462 751 
Q 1734 422 2344 422 
Q 2950 422 3222 751 
Q 3494 1081 3494 1831 
L 3494 4666 
L 4128 4666 
L 4128 1753 
Q 4128 841 3676 375 
Q 3225 -91 2344 -91 
Q 1459 -91 1007 375 
Q 556 841 556 1753 
L 556 4666 
z
" transform="scale(0.015625)"/>
      <path id="DejaVuSans-20" transform="scale(0.015625)"/>
      <path id="DejaVuSans-62" d="M 3116 1747 
Q 3116 2381 2855 2742 
Q 2594 3103 2138 3103 
Q 1681 3103 1420 2742 
Q 1159 2381 1159 1747 
Q 1159 1113 1420 752 
Q 1681 391 2138 391 
Q 2594 391 2855 752 
Q 3116 1113 3116 1747 
z
M 1159 2969 
Q 1341 3281 1617 3432 
Q 1894 3584 2278 3584 
Q 2916 3584 3314 3078 
Q 3713 2572 3713 1747 
Q 3713 922 3314 415 
Q 2916 -91 2278 -91 
Q 1894 -91 1617 61 
Q 1341 213 1159 525 
L 1159 0 
L 581 0 
L 581 4863 
L 1159 4863 
L 1159 2969 
z
" transform="scale(0.015625)"/>
      <path id="DejaVuSans-79" d="M 2059 -325 
Q 1816 -950 1584 -1140 
Q 1353 -1331 966 -1331 
L 506 -1331 
L 506 -850 
L 844 -850 
Q 1081 -850 1212 -737 
Q 1344 -625 1503 -206 
L 1606 56 
L 191 3500 
L 800 3500 
L 1894 763 
L 2988 3500 
L 3597 3500 
L 2059 -325 
z
" transform="scale(0.015625)"/>
      <path id="DejaVuSans-70" d="M 1159 525 
L 1159 -1331 
L 581 -1331 
L 581 3500 
L 1159 3500 
L 1159 2969 
Q 1341 3281 1617 3432 
Q 1894 3584 2278 3584 
Q 2916 3584 3314 3078 
Q 3713 2572 3713 1747 
Q 3713 922 3314 415 
Q 2916 -91 2278 -91 
Q 1894 -91 1617 61 
Q 1341 213 1159 525 
z
M 3116 1747 
Q 3116 2381 2855 2742 
Q 2594 3103 2138 3103 
Q 1681 3103 1420 2742 
Q 1159 2381 1159 1747 
Q 1159 1113 1420 752 
Q 1681 391 2138 391 
Q 2594 391 2855 752 
Q 3116 1113 3116 1747 
z
" transform="scale(0.015625)"/>
      <path id="DejaVuSans-65" d="M 3597 1894 
L 3597 1613 
L 953 1613 
Q 991 1019 1311 708 
Q 1631 397 2203 397 
Q 2534 397 2845 478 
Q 3156 559 3463 722 
L 3463 178 
Q 3153 47 2828 -22 
Q 2503 -91 2169 -91 
Q 1331 -91 842 396 
Q 353 884 353 1716 
Q 353 2575 817 3079 
Q 1281 3584 2069 3584 
Q 2775 3584 3186 3129 
Q 3597 2675 3597 1894 
z
M 3022 2063 
Q 3016 2534 2758 2815 
Q 2500 3097 2075 3097 
Q 1594 3097 1305 2825 
Q 1016 2553 972 2059 
L 3022 2063 
z
" transform="scale(0.015625)"/>
     </defs>
     <use xlink:href="#DejaVuSans-52"/>
     <use xlink:href="#DejaVuSans-4f" transform="translate(69.482422 0)"/>
     <use xlink:href="#DejaVuSans-43" transform="translate(148.193359 0)"/>
     <use xlink:href="#DejaVuSans-2d" transform="translate(218.017578 0)"/>
     <use xlink:href="#DejaVuSans-41" transform="translate(251.851562 0)"/>
     <use xlink:href="#DejaVuSans-55" transform="translate(320.259766 0)"/>
     <use xlink:href="#DejaVuSans-43" transform="translate(393.453125 0)"/>
     <use xlink:href="#DejaVuSans-20" transform="translate(463.277344 0)"/>
     <use xlink:href="#DejaVuSans-62" transform="translate(495.064453 0)"/>
     <use xlink:href="#DejaVuSans-79" transform="translate(558.541016 0)"/>
     <use xlink:href="#DejaVuSans-20" transform="translate(617.720703 0)"/>
     <use xlink:href="#DejaVuSans-41" transform="translate(649.507812 0)"/>
     <use xlink:href="#DejaVuSans-46" transform="translate(717.916016 0)"/>
     <use xlink:href="#DejaVuSans-50" transform="translate(775.435547 0)"/>
     <use xlink:href="#DejaVuSans-20" transform="translate(835.738281 0)"/>
     <use xlink:href="#DejaVuSans-54" transform="translate(867.525391 0)"/>
     <use xlink:href="#DejaVuSans-79" transform="translate(912.984375 0)"/>
     <use xlink:href="#DejaVuSans-70" transform="translate(972.164062 0)"/>
     <use xlink:href="#DejaVuSans-65" transform="translate(1035.640625 0)"/>
    </g>
   </g>
  </g>
  <g id="axes_2">
   <g id="patch_12">
    <path d="M 456.703125 339.378125 
L 849.528125 339.378125 
L 849.528125 22.318125 
L 456.703125 22.318125 
z
" style="fill: #ffffff"/>
   </g>
   <g id="patch_13">
    <path d="M 474.558807 339.378125 
L 534.077746 339.378125 
L 534.077746 339.378125 
L 474.558807 339.378125 
z
" clip-path="url(#p1ab40df72b)" style="fill: #1f77b4"/>
   </g>
   <g id="patch_14">
    <path d="M 548.957481 339.378125 
L 608.47642 339.378125 
L 608.47642 339.378125 
L 548.957481 339.378125 
z
" clip-path="url(#p1ab40df72b)" style="fill: #1f77b4"/>
   </g>
   <g id="patch_15">
    <path d="M 623.356155 339.378125 
L 682.875095 339.378125 
L 682.875095 339.378125 
L 623.356155 339.378125 
z
" clip-path="url(#p1ab40df72b)" style="fill: #1f77b4"/>
   </g>
   <g id="patch_16">
    <path d="M 697.75483 339.378125 
L 757.273769 339.378125 
L 757.273769 339.378125 
L 697.75483 339.378125 
z
" clip-path="url(#p1ab40df72b)" style="fill: #1f77b4"/>
   </g>
   <g id="patch_17">
    <path d="M 772.153504 339.378125 
L 831.672443 339.378125 
L 831.672443 339.378125 
L 772.153504 339.378125 
z
" clip-path="url(#p1ab40df72b)" style="fill: #1f77b4"/>
   </g>
   <g id="matplotlib.axis_3">
    <g id="xtick_6">
     <g id="line2d_12">
      <g>
       <use xlink:href="#m90d67d278c" x="504.318277" y="339.378125" style="stroke: #000000; stroke-width: 0.8"/>
      </g>
     </g>
     <g id="text_13">
      <!-- TYPE1 -->
      <g transform="translate(488.854995 353.976562) scale(0.1 -0.1)">
       <use xlink:href="#DejaVuSans-54"/>
       <use xlink:href="#DejaVuSans-59" transform="translate(61.083984 0)"/>
       <use xlink:href="#DejaVuSans-50" transform="translate(122.167969 0)"/>
       <use xlink:href="#DejaVuSans-45" transform="translate(182.470703 0)"/>
       <use xlink:href="#DejaVuSans-31" transform="translate(245.654297 0)"/>
      </g>
     </g>
    </g>
    <g id="xtick_7">
     <g id="line2d_13">
      <g>
       <use xlink:href="#m90d67d278c" x="578.716951" y="339.378125" style="stroke: #000000; stroke-width: 0.8"/>
      </g>
     </g>
     <g id="text_14">
      <!-- TYPE2 -->
      <g transform="translate(563.25367 353.976562) scale(0.1 -0.1)">
       <use xlink:href="#DejaVuSans-54"/>
       <use xlink:href="#DejaVuSans-59" transform="translate(61.083984 0)"/>
       <use xlink:href="#DejaVuSans-50" transform="translate(122.167969 0)"/>
       <use xlink:href="#DejaVuSans-45" transform="translate(182.470703 0)"/>
       <use xlink:href="#DejaVuSans-32" transform="translate(245.654297 0)"/>
      </g>
     </g>
    </g>
    <g id="xtick_8">
     <g id="line2d_14">
      <g>
       <use xlink:href="#m90d67d278c" x="653.115625" y="339.378125" style="stroke: #000000; stroke-width: 0.8"/>
      </g>
     </g>
     <g id="text_15">
      <!-- TYPE3 -->
      <g transform="translate(637.652344 353.976562) scale(0.1 -0.1)">
       <use xlink:href="#DejaVuSans-54"/>
       <use xlink:href="#DejaVuSans-59" transform="translate(61.083984 0)"/>
       <use xlink:href="#DejaVuSans-50" transform="translate(122.167969 0)"/>
       <use xlink:href="#DejaVuSans-45" transform="translate(182.470703 0)"/>
       <use xlink:href="#DejaVuSans-33" transform="translate(245.654297 0)"/>
      </g>
     </g>
    </g>
    <g id="xtick_9">
     <g id="line2d_15">
      <g>
       <use xlink:href="#m90d67d278c" x="727.514299" y="339.378125" style="stroke: #000000; stroke-width: 0.8"/>
      </g>
     </g>
     <g id="text_16">
      <!-- TYPE4 -->
      <g transform="translate(712.051018 353.976562) scale(0.1 -0.1)">
       <use xlink:href="#DejaVuSans-54"/>
       <use xlink:href="#DejaVuSans-59" transform="translate(61.083984 0)"/>
       <use xlink:href="#DejaVuSans-50" transform="translate(122.167969 0)"/>
       <use xlink:href="#DejaVuSans-45" transform="translate(182.470703 0)"/>
       <use xlink:href="#DejaVuSans-34" transform="translate(245.654297 0)"/>
      </g>
     </g>
    </g>
    <g id="xtick_10">
     <g id="line2d_16">
      <g>
       <use xlink:href="#m90d67d278c" x="801.912973" y="339.378125" style="stroke: #000000; stroke-width: 0.8"/>
      </g>
     </g>
     <g id="text_17">
      <!-- AFGP -->
      <g transform="translate(788.727817 353.976562) scale(0.1 -0.1)">
       <use xlink:href="#DejaVuSans-41"/>
       <use xlink:href="#DejaVuSans-46" transform="translate(68.408203 0)"/>
       <use xlink:href="#DejaVuSans-47" transform="translate(125.927734 0)"/>
       <use xlink:href="#DejaVuSans-50" transform="translate(203.417969 0)"/>
      </g>
     </g>
    </g>
   </g>
   <g id="matplotlib.axis_4">
    <g id="ytick_7">
     <g id="line2d_17">
      <g>
       <use xlink:href="#ma1ca108588" x="456.703125" y="339.378125" style="stroke: #000000; stroke-width: 0.8"/>
      </g>
     </g>
     <g id="text_18">
      <!-- 0.0 -->
      <g transform="translate(433.8 343.177344) scale(0.1 -0.1)">
       <use xlink:href="#DejaVuSans-30"/>
       <use xlink:href="#DejaVuSans-2e" transform="translate(63.623047 0)"/>
       <use xlink:href="#DejaVuSans-30" transform="translate(95.410156 0)"/>
      </g>
     </g>
    </g>
    <g id="ytick_8">
     <g id="line2d_18">
      <g>
       <use xlink:href="#ma1ca108588" x="456.703125" y="275.966125" style="stroke: #000000; stroke-width: 0.8"/>
      </g>
     </g>
     <g id="text_19">
      <!-- 0.2 -->
      <g transform="translate(433.8 279.765344) scale(0.1 -0.1)">
       <use xlink:href="#DejaVuSans-30"/>
       <use xlink:href="#DejaVuSans-2e" transform="translate(63.623047 0)"/>
       <use xlink:href="#DejaVuSans-32" transform="translate(95.410156 0)"/>
      </g>
     </g>
    </g>
    <g id="ytick_9">
     <g id="line2d_19">
      <g>
       <use xlink:href="#ma1ca108588" x="456.703125" y="212.554125" style="stroke: #000000; stroke-width: 0.8"/>
      </g>
     </g>
     <g id="text_20">
      <!-- 0.4 -->
      <g transform="translate(433.8 216.353344) scale(0.1 -0.1)">
       <use xlink:href="#DejaVuSans-30"/>
       <use xlink:href="#DejaVuSans-2e" transform="translate(63.623047 0)"/>
       <use xlink:href="#DejaVuSans-34" transform="translate(95.410156 0)"/>
      </g>
     </g>
    </g>
    <g id="ytick_10">
     <g id="line2d_20">
      <g>
       <use xlink:href="#ma1ca108588" x="456.703125" y="149.142125" style="stroke: #000000; stroke-width: 0.8"/>
      </g>
     </g>
     <g id="text_21">
      <!-- 0.6 -->
      <g transform="translate(433.8 152.941344) scale(0.1 -0.1)">
       <use xlink:href="#DejaVuSans-30"/>
       <use xlink:href="#DejaVuSans-2e" transform="translate(63.623047 0)"/>
       <use xlink:href="#DejaVuSans-36" transform="translate(95.410156 0)"/>
      </g>
     </g>
    </g>
    <g id="ytick_11">
     <g id="line2d_21">
      <g>
       <use xlink:href="#ma1ca108588" x="456.703125" y="85.730125" style="stroke: #000000; stroke-width: 0.8"/>
      </g>
     </g>
     <g id="text_22">
      <!-- 0.8 -->
      <g transform="translate(433.8 89.529344) scale(0.1 -0.1)">
       <use xlink:href="#DejaVuSans-30"/>
       <use xlink:href="#DejaVuSans-2e" transform="translate(63.623047 0)"/>
       <use xlink:href="#DejaVuSans-38" transform="translate(95.410156 0)"/>
      </g>
     </g>
    </g>
    <g id="ytick_12">
     <g id="line2d_22">
      <g>
       <use xlink:href="#ma1ca108588" x="456.703125" y="22.318125" style="stroke: #000000; stroke-width: 0.8"/>
      </g>
     </g>
     <g id="text_23">
      <!-- 1.0 -->
      <g transform="translate(433.8 26.117344) scale(0.1 -0.1)">
       <use xlink:href="#DejaVuSans-31"/>
       <use xlink:href="#DejaVuSans-2e" transform="translate(63.623047 0)"/>
       <use xlink:href="#DejaVuSans-30" transform="translate(95.410156 0)"/>
      </g>
     </g>
    </g>
   </g>
   <g id="patch_18">
    <path d="M 456.703125 339.378125 
L 456.703125 22.318125 
" style="fill: none; stroke: #000000; stroke-width: 0.8; stroke-linejoin: miter; stroke-linecap: square"/>
   </g>
   <g id="patch_19">
    <path d="M 849.528125 339.378125 
L 849.528125 22.318125 
" style="fill: none; stroke: #000000; stroke-width: 0.8; stroke-linejoin: miter; stroke-linecap: square"/>
   </g>
   <g id="patch_20">
    <path d="M 456.703125 339.378125 
L 849.528125 339.378125 
" style="fill: none; stroke: #000000; stroke-width: 0.8; stroke-linejoin: miter; stroke-linecap: square"/>
   </g>
   <g id="patch_21">
    <path d="M 456.703125 22.318125 
L 849.528125 22.318125 
" style="fill: none; stroke: #000000; stroke-width: 0.8; stroke-linejoin: miter; stroke-linecap: square"/>
   </g>
   <g id="text_24">
    <!-- PR-AUC by AFP Type -->
    <g transform="translate(592.820312 16.318125) scale(0.12 -0.12)">
     <use xlink:href="#DejaVuSans-50"/>
     <use xlink:href="#DejaVuSans-52" transform="translate(60.302734 0)"/>
     <use xlink:href="#DejaVuSans-2d" transform="translate(125.785156 0)"/>
     <use xlink:href="#DejaVuSans-41" transform="translate(159.619141 0)"/>
     <use xlink:href="#DejaVuSans-55" transform="translate(228.027344 0)"/>
     <use xlink:href="#DejaVuSans-43" transform="translate(301.220703 0)"/>
     <use xlink:href="#DejaVuSans-20" transform="translate(371.044922 0)"/>
     <use xlink:href="#DejaVuSans-62" transform="translate(402.832031 0)"/>
     <use xlink:href="#DejaVuSans-79" transform="translate(466.308594 0)"/>
     <use xlink:href="#DejaVuSans-20" transform="translate(525.488281 0)"/>
     <use xlink:href="#DejaVuSans-41" transform="translate(557.275391 0)"/>
     <use xlink:href="#DejaVuSans-46" transform="translate(625.683594 0)"/>
     <use xlink:href="#DejaVuSans-50" transform="translate(683.203125 0)"/>
     <use xlink:href="#DejaVuSans-20" transform="translate(743.505859 0)"/>
     <use xlink:href="#DejaVuSans-54" transform="translate(775.292969 0)"/>
     <use xlink:href="#DejaVuSans-79" transform="translate(820.751953 0)"/>
     <use xlink:href="#DejaVuSans-70" transform="translate(879.931641 0)"/>
     <use xlink:href="#DejaVuSans-65" transform="translate(943.408203 0)"/>
    </g>
   </g>
  </g>
  <g id="axes_3">
   <g id="patch_22">
    <path d="M 30.103125 688.278125 
L 422.928125 688.278125 
L 422.928125 371.218125 
L 30.103125 371.218125 
z
" style="fill: #ffffff"/>
   </g>
   <g id="patch_23">
    <path d="M 47.958807 688.278125 
L 74.552375 688.278125 
L 74.552375 688.278125 
L 47.958807 688.278125 
z
" clip-path="url(#p40a08d58e1)" style="fill: #1f77b4; opacity: 0.7"/>
   </g>
   <g id="patch_24">
    <path d="M 123.940432 688.278125 
L 150.534 688.278125 
L 150.534 688.278125 
L 123.940432 688.278125 
z
" clip-path="url(#p40a08d58e1)" style="fill: #1f77b4; opacity: 0.7"/>
   </g>
   <g id="patch_25">
    <path d="M 199.922056 688.278125 
L 226.515625 688.278125 
L 226.515625 688.278125 
L 199.922056 688.278125 
z
" clip-path="url(#p40a08d58e1)" style="fill: #1f77b4; opacity: 0.7"/>
   </g>
   <g id="patch_26">
    <path d="M 275.903681 688.278125 
L 302.49725 688.278125 
L 302.49725 688.278125 
L 275.903681 688.278125 
z
" clip-path="url(#p40a08d58e1)" style="fill: #1f77b4; opacity: 0.7"/>
   </g>
   <g id="patch_27">
    <path d="M 351.885306 688.278125 
L 378.478875 688.278125 
L 378.478875 688.278125 
L 351.885306 688.278125 
z
" clip-path="url(#p40a08d58e1)" style="fill: #1f77b4; opacity: 0.7"/>
   </g>
   <g id="patch_28">
    <path d="M 74.552375 688.278125 
L 101.145944 688.278125 
L 101.145944 688.278125 
L 74.552375 688.278125 
z
" clip-path="url(#p40a08d58e1)" style="fill: #ff7f0e; opacity: 0.7"/>
   </g>
   <g id="patch_29">
    <path d="M 150.534 688.278125 
L 177.127569 688.278125 
L 177.127569 688.278125 
L 150.534 688.278125 
z
" clip-path="url(#p40a08d58e1)" style="fill: #ff7f0e; opacity: 0.7"/>
   </g>
   <g id="patch_30">
    <path d="M 226.515625 688.278125 
L 253.109194 688.278125 
L 253.109194 688.278125 
L 226.515625 688.278125 
z
" clip-path="url(#p40a08d58e1)" style="fill: #ff7f0e; opacity: 0.7"/>
   </g>
   <g id="patch_31">
    <path d="M 302.49725 688.278125 
L 329.090818 688.278125 
L 329.090818 688.278125 
L 302.49725 688.278125 
z
" clip-path="url(#p40a08d58e1)" style="fill: #ff7f0e; opacity: 0.7"/>
   </g>
   <g id="patch_32">
    <path d="M 378.478875 688.278125 
L 405.072443 688.278125 
L 405.072443 688.278125 
L 378.478875 688.278125 
z
" clip-path="url(#p40a08d58e1)" style="fill: #ff7f0e; opacity: 0.7"/>
   </g>
   <g id="matplotlib.axis_5">
    <g id="xtick_11">
     <g id="line2d_23">
      <g>
       <use xlink:href="#m90d67d278c" x="74.552375" y="688.278125" style="stroke: #000000; stroke-width: 0.8"/>
      </g>
     </g>
     <g id="text_25">
      <!-- TYPE1 -->
      <g transform="translate(59.089094 702.876562) scale(0.1 -0.1)">
       <use xlink:href="#DejaVuSans-54"/>
       <use xlink:href="#DejaVuSans-59" transform="translate(61.083984 0)"/>
       <use xlink:href="#DejaVuSans-50" transform="translate(122.167969 0)"/>
       <use xlink:href="#DejaVuSans-45" transform="translate(182.470703 0)"/>
       <use xlink:href="#DejaVuSans-31" transform="translate(245.654297 0)"/>
      </g>
     </g>
    </g>
    <g id="xtick_12">
     <g id="line2d_24">
      <g>
       <use xlink:href="#m90d67d278c" x="150.534" y="688.278125" style="stroke: #000000; stroke-width: 0.8"/>
      </g>
     </g>
     <g id="text_26">
      <!-- TYPE2 -->
      <g transform="translate(135.070719 702.876562) scale(0.1 -0.1)">
       <use xlink:href="#DejaVuSans-54"/>
       <use xlink:href="#DejaVuSans-59" transform="translate(61.083984 0)"/>
       <use xlink:href="#DejaVuSans-50" transform="translate(122.167969 0)"/>
       <use xlink:href="#DejaVuSans-45" transform="translate(182.470703 0)"/>
       <use xlink:href="#DejaVuSans-32" transform="translate(245.654297 0)"/>
      </g>
     </g>
    </g>
    <g id="xtick_13">
     <g id="line2d_25">
      <g>
       <use xlink:href="#m90d67d278c" x="226.515625" y="688.278125" style="stroke: #000000; stroke-width: 0.8"/>
      </g>
     </g>
     <g id="text_27">
      <!-- TYPE3 -->
      <g transform="translate(211.052344 702.876562) scale(0.1 -0.1)">
       <use xlink:href="#DejaVuSans-54"/>
       <use xlink:href="#DejaVuSans-59" transform="translate(61.083984 0)"/>
       <use xlink:href="#DejaVuSans-50" transform="translate(122.167969 0)"/>
       <use xlink:href="#DejaVuSans-45" transform="translate(182.470703 0)"/>
       <use xlink:href="#DejaVuSans-33" transform="translate(245.654297 0)"/>
      </g>
     </g>
    </g>
    <g id="xtick_14">
     <g id="line2d_26">
      <g>
       <use xlink:href="#m90d67d278c" x="302.49725" y="688.278125" style="stroke: #000000; stroke-width: 0.8"/>
      </g>
     </g>
     <g id="text_28">
      <!-- TYPE4 -->
      <g transform="translate(287.033969 702.876562) scale(0.1 -0.1)">
       <use xlink:href="#DejaVuSans-54"/>
       <use xlink:href="#DejaVuSans-59" transform="translate(61.083984 0)"/>
       <use xlink:href="#DejaVuSans-50" transform="translate(122.167969 0)"/>
       <use xlink:href="#DejaVuSans-45" transform="translate(182.470703 0)"/>
       <use xlink:href="#DejaVuSans-34" transform="translate(245.654297 0)"/>
      </g>
     </g>
    </g>
    <g id="xtick_15">
     <g id="line2d_27">
      <g>
       <use xlink:href="#m90d67d278c" x="378.478875" y="688.278125" style="stroke: #000000; stroke-width: 0.8"/>
      </g>
     </g>
     <g id="text_29">
      <!-- AFGP -->
      <g transform="translate(365.293718 702.876562) scale(0.1 -0.1)">
       <use xlink:href="#DejaVuSans-41"/>
       <use xlink:href="#DejaVuSans-46" transform="translate(68.408203 0)"/>
       <use xlink:href="#DejaVuSans-47" transform="translate(125.927734 0)"/>
       <use xlink:href="#DejaVuSans-50" transform="translate(203.417969 0)"/>
      </g>
     </g>
    </g>
   </g>
   <g id="matplotlib.axis_6">
    <g id="ytick_13">
     <g id="line2d_28">
      <g>
       <use xlink:href="#ma1ca108588" x="30.103125" y="688.278125" style="stroke: #000000; stroke-width: 0.8"/>
      </g>
     </g>
     <g id="text_30">
      <!-- 0.0 -->
      <g transform="translate(7.2 692.077344) scale(0.1 -0.1)">
       <use xlink:href="#DejaVuSans-30"/>
       <use xlink:href="#DejaVuSans-2e" transform="translate(63.623047 0)"/>
       <use xlink:href="#DejaVuSans-30" transform="translate(95.410156 0)"/>
      </g>
     </g>
    </g>
    <g id="ytick_14">
     <g id="line2d_29">
      <g>
       <use xlink:href="#ma1ca108588" x="30.103125" y="624.866125" style="stroke: #000000; stroke-width: 0.8"/>
      </g>
     </g>
     <g id="text_31">
      <!-- 0.2 -->
      <g transform="translate(7.2 628.665344) scale(0.1 -0.1)">
       <use xlink:href="#DejaVuSans-30"/>
       <use xlink:href="#DejaVuSans-2e" transform="translate(63.623047 0)"/>
       <use xlink:href="#DejaVuSans-32" transform="translate(95.410156 0)"/>
      </g>
     </g>
    </g>
    <g id="ytick_15">
     <g id="line2d_30">
      <g>
       <use xlink:href="#ma1ca108588" x="30.103125" y="561.454125" style="stroke: #000000; stroke-width: 0.8"/>
      </g>
     </g>
     <g id="text_32">
      <!-- 0.4 -->
      <g transform="translate(7.2 565.253344) scale(0.1 -0.1)">
       <use xlink:href="#DejaVuSans-30"/>
       <use xlink:href="#DejaVuSans-2e" transform="translate(63.623047 0)"/>
       <use xlink:href="#DejaVuSans-34" transform="translate(95.410156 0)"/>
      </g>
     </g>
    </g>
    <g id="ytick_16">
     <g id="line2d_31">
      <g>
       <use xlink:href="#ma1ca108588" x="30.103125" y="498.042125" style="stroke: #000000; stroke-width: 0.8"/>
      </g>
     </g>
     <g id="text_33">
      <!-- 0.6 -->
      <g transform="translate(7.2 501.841344) scale(0.1 -0.1)">
       <use xlink:href="#DejaVuSans-30"/>
       <use xlink:href="#DejaVuSans-2e" transform="translate(63.623047 0)"/>
       <use xlink:href="#DejaVuSans-36" transform="translate(95.410156 0)"/>
      </g>
     </g>
    </g>
    <g id="ytick_17">
     <g id="line2d_32">
      <g>
       <use xlink:href="#ma1ca108588" x="30.103125" y="434.630125" style="stroke: #000000; stroke-width: 0.8"/>
      </g>
     </g>
     <g id="text_34">
      <!-- 0.8 -->
      <g transform="translate(7.2 438.429344) scale(0.1 -0.1)">
       <use xlink:href="#DejaVuSans-30"/>
       <use xlink:href="#DejaVuSans-2e" transform="translate(63.623047 0)"/>
       <use xlink:href="#DejaVuSans-38" transform="translate(95.410156 0)"/>
      </g>
     </g>
    </g>
    <g id="ytick_18">
     <g id="line2d_33">
      <g>
       <use xlink:href="#ma1ca108588" x="30.103125" y="371.218125" style="stroke: #000000; stroke-width: 0.8"/>
      </g>
     </g>
     <g id="text_35">
      <!-- 1.0 -->
      <g transform="translate(7.2 375.017344) scale(0.1 -0.1)">
       <use xlink:href="#DejaVuSans-31"/>
       <use xlink:href="#DejaVuSans-2e" transform="translate(63.623047 0)"/>
       <use xlink:href="#DejaVuSans-30" transform="translate(95.410156 0)"/>
      </g>
     </g>
    </g>
   </g>
   <g id="patch_33">
    <path d="M 30.103125 688.278125 
L 30.103125 371.218125 
" style="fill: none; stroke: #000000; stroke-width: 0.8; stroke-linejoin: miter; stroke-linecap: square"/>
   </g>
   <g id="patch_34">
    <path d="M 422.928125 688.278125 
L 422.928125 371.218125 
" style="fill: none; stroke: #000000; stroke-width: 0.8; stroke-linejoin: miter; stroke-linecap: square"/>
   </g>
   <g id="patch_35">
    <path d="M 30.103125 688.278125 
L 422.928125 688.278125 
" style="fill: none; stroke: #000000; stroke-width: 0.8; stroke-linejoin: miter; stroke-linecap: square"/>
   </g>
   <g id="patch_36">
    <path d="M 30.103125 371.218125 
L 422.928125 371.218125 
" style="fill: none; stroke: #000000; stroke-width: 0.8; stroke-linejoin: miter; stroke-linecap: square"/>
   </g>
   <g id="legend_1">
    <g id="patch_37">
     <path d="M 338.271875 408.574375 
L 415.928125 408.574375 
Q 417.928125 408.574375 417.928125 406.574375 
L 417.928125 378.218125 
Q 417.928125 376.218125 415.928125 376.218125 
L 338.271875 376.218125 
Q 336.271875 376.218125 336.271875 378.218125 
L 336.271875 406.574375 
Q 336.271875 408.574375 338.271875 408.574375 
z
" style="fill: #ffffff; opacity: 0.8; stroke: #cccccc; stroke-linejoin: miter"/>
    </g>
    <g id="patch_38">
     <path d="M 340.271875 387.816562 
L 360.271875 387.816562 
L 360.271875 380.816562 
L 340.271875 380.816562 
z
" style="fill: #1f77b4; opacity: 0.7"/>
    </g>
    <g id="text_36">
     <!-- Accuracy -->
     <g transform="translate(368.271875 387.816562) scale(0.1 -0.1)">
      <defs>
       <path id="DejaVuSans-63" d="M 3122 3366 
L 3122 2828 
Q 2878 2963 2633 3030 
Q 2388 3097 2138 3097 
Q 1578 3097 1268 2742 
Q 959 2388 959 1747 
Q 959 1106 1268 751 
Q 1578 397 2138 397 
Q 2388 397 2633 464 
Q 2878 531 3122 666 
L 3122 134 
Q 2881 22 2623 -34 
Q 2366 -91 2075 -91 
Q 1284 -91 818 406 
Q 353 903 353 1747 
Q 353 2603 823 3093 
Q 1294 3584 2113 3584 
Q 2378 3584 2631 3529 
Q 2884 3475 3122 3366 
z
" transform="scale(0.015625)"/>
       <path id="DejaVuSans-75" d="M 544 1381 
L 544 3500 
L 1119 3500 
L 1119 1403 
Q 1119 906 1312 657 
Q 1506 409 1894 409 
Q 2359 409 2629 706 
Q 2900 1003 2900 1516 
L 2900 3500 
L 3475 3500 
L 3475 0 
L 2900 0 
L 2900 538 
Q 2691 219 2414 64 
Q 2138 -91 1772 -91 
Q 1169 -91 856 284 
Q 544 659 544 1381 
z
M 1991 3584 
L 1991 3584 
z
" transform="scale(0.015625)"/>
       <path id="DejaVuSans-72" d="M 2631 2963 
Q 2534 3019 2420 3045 
Q 2306 3072 2169 3072 
Q 1681 3072 1420 2755 
Q 1159 2438 1159 1844 
L 1159 0 
L 581 0 
L 581 3500 
L 1159 3500 
L 1159 2956 
Q 1341 3275 1631 3429 
Q 1922 3584 2338 3584 
Q 2397 3584 2469 3576 
Q 2541 3569 2628 3553 
L 2631 2963 
z
" transform="scale(0.015625)"/>
       <path id="DejaVuSans-61" d="M 2194 1759 
Q 1497 1759 1228 1600 
Q 959 1441 959 1056 
Q 959 750 1161 570 
Q 1363 391 1709 391 
Q 2188 391 2477 730 
Q 2766 1069 2766 1631 
L 2766 1759 
L 2194 1759 
z
M 3341 1997 
L 3341 0 
L 2766 0 
L 2766 531 
Q 2569 213 2275 61 
Q 1981 -91 1556 -91 
Q 1019 -91 701 211 
Q 384 513 384 1019 
Q 384 1609 779 1909 
Q 1175 2209 1959 2209 
L 2766 2209 
L 2766 2266 
Q 2766 2663 2505 2880 
Q 2244 3097 1772 3097 
Q 1472 3097 1187 3025 
Q 903 2953 641 2809 
L 641 3341 
Q 956 3463 1253 3523 
Q 1550 3584 1831 3584 
Q 2591 3584 2966 3190 
Q 3341 2797 3341 1997 
z
" transform="scale(0.015625)"/>
      </defs>
      <use xlink:href="#DejaVuSans-41"/>
      <use xlink:href="#DejaVuSans-63" transform="translate(66.658203 0)"/>
      <use xlink:href="#DejaVuSans-63" transform="translate(121.638672 0)"/>
      <use xlink:href="#DejaVuSans-75" transform="translate(176.619141 0)"/>
      <use xlink:href="#DejaVuSans-72" transform="translate(239.998047 0)"/>
      <use xlink:href="#DejaVuSans-61" transform="translate(281.111328 0)"/>
      <use xlink:href="#DejaVuSans-63" transform="translate(342.390625 0)"/>
      <use xlink:href="#DejaVuSans-79" transform="translate(397.371094 0)"/>
     </g>
    </g>
    <g id="patch_39">
     <path d="M 340.271875 402.494687 
L 360.271875 402.494687 
L 360.271875 395.494687 
L 340.271875 395.494687 
z
" style="fill: #ff7f0e; opacity: 0.7"/>
    </g>
    <g id="text_37">
     <!-- F1 -->
     <g transform="translate(368.271875 402.494687) scale(0.1 -0.1)">
      <use xlink:href="#DejaVuSans-46"/>
      <use xlink:href="#DejaVuSans-31" transform="translate(57.519531 0)"/>
     </g>
    </g>
   </g>
  </g>
  <g id="axes_4">
   <g id="table_1">
    <g id="patch_40">
     <path d="M 456.703125 424.061458 
L 535.268125 424.061458 
L 535.268125 371.218125 
L 456.703125 371.218125 
z
" style="fill: #ffffff; stroke: #000000; stroke-linejoin: miter"/>
    </g>
    <g id="text_38">
     <!-- Type -->
     <g transform="translate(485.651094 400.123229) scale(0.09 -0.09)">
      <use xlink:href="#DejaVuSans-54"/>
      <use xlink:href="#DejaVuSans-79" transform="translate(45.458984 0)"/>
      <use xlink:href="#DejaVuSans-70" transform="translate(104.638672 0)"/>
      <use xlink:href="#DejaVuSans-65" transform="translate(168.115234 0)"/>
     </g>
    </g>
    <g id="patch_41">
     <path d="M 535.268125 424.061458 
L 613.833125 424.061458 
L 613.833125 371.218125 
L 535.268125 371.218125 
z
" style="fill: #ffffff; stroke: #000000; stroke-linejoin: miter"/>
    </g>
    <g id="text_39">
     <!-- ROC-AUC -->
     <g transform="translate(553.702969 400.123229) scale(0.09 -0.09)">
      <use xlink:href="#DejaVuSans-52"/>
      <use xlink:href="#DejaVuSans-4f" transform="translate(69.482422 0)"/>
      <use xlink:href="#DejaVuSans-43" transform="translate(148.193359 0)"/>
      <use xlink:href="#DejaVuSans-2d" transform="translate(218.017578 0)"/>
      <use xlink:href="#DejaVuSans-41" transform="translate(251.851562 0)"/>
      <use xlink:href="#DejaVuSans-55" transform="translate(320.259766 0)"/>
      <use xlink:href="#DejaVuSans-43" transform="translate(393.453125 0)"/>
     </g>
    </g>
    <g id="patch_42">
     <path d="M 613.833125 424.061458 
L 692.398125 424.061458 
L 692.398125 371.218125 
L 613.833125 371.218125 
z
" style="fill: #ffffff; stroke: #000000; stroke-linejoin: miter"/>
    </g>
    <g id="text_40">
     <!-- PR-AUC -->
     <g transform="translate(636.419219 400.123229) scale(0.09 -0.09)">
      <use xlink:href="#DejaVuSans-50"/>
      <use xlink:href="#DejaVuSans-52" transform="translate(60.302734 0)"/>
      <use xlink:href="#DejaVuSans-2d" transform="translate(125.785156 0)"/>
      <use xlink:href="#DejaVuSans-41" transform="translate(159.619141 0)"/>
      <use xlink:href="#DejaVuSans-55" transform="translate(228.027344 0)"/>
      <use xlink:href="#DejaVuSans-43" transform="translate(301.220703 0)"/>
     </g>
    </g>
    <g id="patch_43">
     <path d="M 692.398125 424.061458 
L 770.963125 424.061458 
L 770.963125 371.218125 
L 692.398125 371.218125 
z
" style="fill: #ffffff; stroke: #000000; stroke-linejoin: miter"/>
    </g>
    <g id="text_41">
     <!-- Accuracy -->
     <g transform="translate(711.135312 400.123229) scale(0.09 -0.09)">
      <use xlink:href="#DejaVuSans-41"/>
      <use xlink:href="#DejaVuSans-63" transform="translate(66.658203 0)"/>
      <use xlink:href="#DejaVuSans-63" transform="translate(121.638672 0)"/>
      <use xlink:href="#DejaVuSans-75" transform="translate(176.619141 0)"/>
      <use xlink:href="#DejaVuSans-72" transform="translate(239.998047 0)"/>
      <use xlink:href="#DejaVuSans-61" transform="translate(281.111328 0)"/>
      <use xlink:href="#DejaVuSans-63" transform="translate(342.390625 0)"/>
      <use xlink:href="#DejaVuSans-79" transform="translate(397.371094 0)"/>
     </g>
    </g>
    <g id="patch_44">
     <path d="M 770.963125 424.061458 
L 849.528125 424.061458 
L 849.528125 371.218125 
L 770.963125 371.218125 
z
" style="fill: #ffffff; stroke: #000000; stroke-linejoin: miter"/>
    </g>
    <g id="text_42">
     <!-- F1 -->
     <g transform="translate(804.794297 400.123229) scale(0.09 -0.09)">
      <use xlink:href="#DejaVuSans-46"/>
      <use xlink:href="#DejaVuSans-31" transform="translate(57.519531 0)"/>
     </g>
    </g>
    <g id="patch_45">
     <path d="M 456.703125 476.904792 
L 535.268125 476.904792 
L 535.268125 424.061458 
L 456.703125 424.061458 
z
" style="fill: #ffffff; stroke: #000000; stroke-linejoin: miter"/>
    </g>
    <g id="text_43">
     <!-- TYPE1 -->
     <g transform="translate(482.068672 452.966562) scale(0.09 -0.09)">
      <use xlink:href="#DejaVuSans-54"/>
      <use xlink:href="#DejaVuSans-59" transform="translate(61.083984 0)"/>
      <use xlink:href="#DejaVuSans-50" transform="translate(122.167969 0)"/>
      <use xlink:href="#DejaVuSans-45" transform="translate(182.470703 0)"/>
      <use xlink:href="#DejaVuSans-31" transform="translate(245.654297 0)"/>
     </g>
    </g>
    <g id="patch_46">
     <path d="M 535.268125 476.904792 
L 613.833125 476.904792 
L 613.833125 424.061458 
L 535.268125 424.061458 
z
" style="fill: #ffffff; stroke: #000000; stroke-linejoin: miter"/>
    </g>
    <g id="text_44">
     <!-- 0 -->
     <g transform="translate(571.6875 452.966562) scale(0.09 -0.09)">
      <use xlink:href="#DejaVuSans-30"/>
     </g>
    </g>
    <g id="patch_47">
     <path d="M 613.833125 476.904792 
L 692.398125 476.904792 
L 692.398125 424.061458 
L 613.833125 424.061458 
z
" style="fill: #ffffff; stroke: #000000; stroke-linejoin: miter"/>
    </g>
    <g id="text_45">
     <!-- 0 -->
     <g transform="translate(650.2525 452.966562) scale(0.09 -0.09)">
      <use xlink:href="#DejaVuSans-30"/>
     </g>
    </g>
    <g id="patch_48">
     <path d="M 692.398125 476.904792 
L 770.963125 476.904792 
L 770.963125 424.061458 
L 692.398125 424.061458 
z
" style="fill: #ffffff; stroke: #000000; stroke-linejoin: miter"/>
    </g>
    <g id="text_46">
     <!-- 0 -->
     <g transform="translate(728.8175 452.966562) scale(0.09 -0.09)">
      <use xlink:href="#DejaVuSans-30"/>
     </g>
    </g>
    <g id="patch_49">
     <path d="M 770.963125 476.904792 
L 849.528125 476.904792 
L 849.528125 424.061458 
L 770.963125 424.061458 
z
" style="fill: #ffffff; stroke: #000000; stroke-linejoin: miter"/>
    </g>
    <g id="text_47">
     <!-- 0 -->
     <g transform="translate(807.3825 452.966562) scale(0.09 -0.09)">
      <use xlink:href="#DejaVuSans-30"/>
     </g>
    </g>
    <g id="patch_50">
     <path d="M 456.703125 529.748125 
L 535.268125 529.748125 
L 535.268125 476.904792 
L 456.703125 476.904792 
z
" style="fill: #ffffff; stroke: #000000; stroke-linejoin: miter"/>
    </g>
    <g id="text_48">
     <!-- TYPE2 -->
     <g transform="translate(482.068672 505.809896) scale(0.09 -0.09)">
      <use xlink:href="#DejaVuSans-54"/>
      <use xlink:href="#DejaVuSans-59" transform="translate(61.083984 0)"/>
      <use xlink:href="#DejaVuSans-50" transform="translate(122.167969 0)"/>
      <use xlink:href="#DejaVuSans-45" transform="translate(182.470703 0)"/>
      <use xlink:href="#DejaVuSans-32" transform="translate(245.654297 0)"/>
     </g>
    </g>
    <g id="patch_51">
     <path d="M 535.268125 529.748125 
L 613.833125 529.748125 
L 613.833125 476.904792 
L 535.268125 476.904792 
z
" style="fill: #ffffff; stroke: #000000; stroke-linejoin: miter"/>
    </g>
    <g id="text_49">
     <!-- 0 -->
     <g transform="translate(571.6875 505.809896) scale(0.09 -0.09)">
      <use xlink:href="#DejaVuSans-30"/>
     </g>
    </g>
    <g id="patch_52">
     <path d="M 613.833125 529.748125 
L 692.398125 529.748125 
L 692.398125 476.904792 
L 613.833125 476.904792 
z
" style="fill: #ffffff; stroke: #000000; stroke-linejoin: miter"/>
    </g>
    <g id="text_50">
     <!-- 0 -->
     <g transform="translate(650.2525 505.809896) scale(0.09 -0.09)">
      <use xlink:href="#DejaVuSans-30"/>
     </g>
    </g>
    <g id="patch_53">
     <path d="M 692.398125 529.748125 
L 770.963125 529.748125 
L 770.963125 476.904792 
L 692.398125 476.904792 
z
" style="fill: #ffffff; stroke: #000000; stroke-linejoin: miter"/>
    </g>
    <g id="text_51">
     <!-- 0 -->
     <g transform="translate(728.8175 505.809896) scale(0.09 -0.09)">
      <use xlink:href="#DejaVuSans-30"/>
     </g>
    </g>
    <g id="patch_54">
     <path d="M 770.963125 529.748125 
L 849.528125 529.748125 
L 849.528125 476.904792 
L 770.963125 476.904792 
z
" style="fill: #ffffff; stroke: #000000; stroke-linejoin: miter"/>
    </g>
    <g id="text_52">
     <!-- 0 -->
     <g transform="translate(807.3825 505.809896) scale(0.09 -0.09)">
      <use xlink:href="#DejaVuSans-30"/>
     </g>
    </g>
    <g id="patch_55">
     <path d="M 456.703125 582.591458 
L 535.268125 582.591458 
L 535.268125 529.748125 
L 456.703125 529.748125 
z
" style="fill: #ffffff; stroke: #000000; stroke-linejoin: miter"/>
    </g>
    <g id="text_53">
     <!-- TYPE3 -->
     <g transform="translate(482.068672 558.653229) scale(0.09 -0.09)">
      <use xlink:href="#DejaVuSans-54"/>
      <use xlink:href="#DejaVuSans-59" transform="translate(61.083984 0)"/>
      <use xlink:href="#DejaVuSans-50" transform="translate(122.167969 0)"/>
      <use xlink:href="#DejaVuSans-45" transform="translate(182.470703 0)"/>
      <use xlink:href="#DejaVuSans-33" transform="translate(245.654297 0)"/>
     </g>
    </g>
    <g id="patch_56">
     <path d="M 535.268125 582.591458 
L 613.833125 582.591458 
L 613.833125 529.748125 
L 535.268125 529.748125 
z
" style="fill: #ffffff; stroke: #000000; stroke-linejoin: miter"/>
    </g>
    <g id="text_54">
     <!-- 0 -->
     <g transform="translate(571.6875 558.653229) scale(0.09 -0.09)">
      <use xlink:href="#DejaVuSans-30"/>
     </g>
    </g>
    <g id="patch_57">
     <path d="M 613.833125 582.591458 
L 692.398125 582.591458 
L 692.398125 529.748125 
L 613.833125 529.748125 
z
" style="fill: #ffffff; stroke: #000000; stroke-linejoin: miter"/>
    </g>
    <g id="text_55">
     <!-- 0 -->
     <g transform="translate(650.2525 558.653229) scale(0.09 -0.09)">
      <use xlink:href="#DejaVuSans-30"/>
     </g>
    </g>
    <g id="patch_58">
     <path d="M 692.398125 582.591458 
L 770.963125 582.591458 
L 770.963125 529.748125 
L 692.398125 529.748125 
z
" style="fill: #ffffff; stroke: #000000; stroke-linejoin: miter"/>
    </g>
    <g id="text_56">
     <!-- 0 -->
     <g transform="translate(728.8175 558.653229) scale(0.09 -0.09)">
      <use xlink:href="#DejaVuSans-30"/>
     </g>
    </g>
    <g id="patch_59">
     <path d="M 770.963125 582.591458 
L 849.528125 582.591458 
L 849.528125 529.748125 
L 770.963125 529.748125 
z
" style="fill: #ffffff; stroke: #000000; stroke-linejoin: miter"/>
    </g>
    <g id="text_57">
     <!-- 0 -->
     <g transform="translate(807.3825 558.653229) scale(0.09 -0.09)">
      <use xlink:href="#DejaVuSans-30"/>
     </g>
    </g>
    <g id="patch_60">
     <path d="M 456.703125 635.434792 
L 535.268125 635.434792 
L 535.268125 582.591458 
L 456.703125 582.591458 
z
" style="fill: #ffffff; stroke: #000000; stroke-linejoin: miter"/>
    </g>
    <g id="text_58">
     <!-- TYPE4 -->
     <g transform="translate(482.068672 611.496562) scale(0.09 -0.09)">
      <use xlink:href="#DejaVuSans-54"/>
      <use xlink:href="#DejaVuSans-59" transform="translate(61.083984 0)"/>
      <use xlink:href="#DejaVuSans-50" transform="translate(122.167969 0)"/>
      <use xlink:href="#DejaVuSans-45" transform="translate(182.470703 0)"/>
      <use xlink:href="#DejaVuSans-34" transform="translate(245.654297 0)"/>
     </g>
    </g>
    <g id="patch_61">
     <path d="M 535.268125 635.434792 
L 613.833125 635.434792 
L 613.833125 582.591458 
L 535.268125 582.591458 
z
" style="fill: #ffffff; stroke: #000000; stroke-linejoin: miter"/>
    </g>
    <g id="text_59">
     <!-- 0 -->
     <g transform="translate(571.6875 611.496562) scale(0.09 -0.09)">
      <use xlink:href="#DejaVuSans-30"/>
     </g>
    </g>
    <g id="patch_62">
     <path d="M 613.833125 635.434792 
L 692.398125 635.434792 
L 692.398125 582.591458 
L 613.833125 582.591458 
z
" style="fill: #ffffff; stroke: #000000; stroke-linejoin: miter"/>
    </g>
    <g id="text_60">
     <!-- 0 -->
     <g transform="translate(650.2525 611.496562) scale(0.09 -0.09)">
      <use xlink:href="#DejaVuSans-30"/>
     </g>
    </g>
    <g id="patch_63">
     <path d="M 692.398125 635.434792 
L 770.963125 635.434792 
L 770.963125 582.591458 
L 692.398125 582.591458 
z
" style="fill: #ffffff; stroke: #000000; stroke-linejoin: miter"/>
    </g>
    <g id="text_61">
     <!-- 0 -->
     <g transform="translate(728.8175 611.496562) scale(0.09 -0.09)">
      <use xlink:href="#DejaVuSans-30"/>
     </g>
    </g>
    <g id="patch_64">
     <path d="M 770.963125 635.434792 
L 849.528125 635.434792 
L 849.528125 582.591458 
L 770.963125 582.591458 
z
" style="fill: #ffffff; stroke: #000000; stroke-linejoin: miter"/>
    </g>
    <g id="text_62">
     <!-- 0 -->
     <g transform="translate(807.3825 611.496562) scale(0.09 -0.09)">
      <use xlink:href="#DejaVuSans-30"/>
     </g>
    </g>
    <g id="patch_65">
     <path d="M 456.703125 688.278125 
L 535.268125 688.278125 
L 535.268125 635.434792 
L 456.703125 635.434792 
z
" style="fill: #ffffff; stroke: #000000; stroke-linejoin: miter"/>
    </g>
    <g id="text_63">
     <!-- AFGP -->
     <g transform="translate(484.118984 664.339896) scale(0.09 -0.09)">
      <use xlink:href="#DejaVuSans-41"/>
      <use xlink:href="#DejaVuSans-46" transform="translate(68.408203 0)"/>
      <use xlink:href="#DejaVuSans-47" transform="translate(125.927734 0)"/>
      <use xlink:href="#DejaVuSans-50" transform="translate(203.417969 0)"/>
     </g>
    </g>
    <g id="patch_66">
     <path d="M 535.268125 688.278125 
L 613.833125 688.278125 
L 613.833125 635.434792 
L 535.268125 635.434792 
z
" style="fill: #ffffff; stroke: #000000; stroke-linejoin: miter"/>
    </g>
    <g id="text_64">
     <!-- 0 -->
     <g transform="translate(571.6875 664.339896) scale(0.09 -0.09)">
      <use xlink:href="#DejaVuSans-30"/>
     </g>
    </g>
    <g id="patch_67">
     <path d="M 613.833125 688.278125 
L 692.398125 688.278125 
L 692.398125 635.434792 
L 613.833125 635.434792 
z
" style="fill: #ffffff; stroke: #000000; stroke-linejoin: miter"/>
    </g>
    <g id="text_65">
     <!-- 0 -->
     <g transform="translate(650.2525 664.339896) scale(0.09 -0.09)">
      <use xlink:href="#DejaVuSans-30"/>
     </g>
    </g>
    <g id="patch_68">
     <path d="M 692.398125 688.278125 
L 770.963125 688.278125 
L 770.963125 635.434792 
L 692.398125 635.434792 
z
" style="fill: #ffffff; stroke: #000000; stroke-linejoin: miter"/>
    </g>
    <g id="text_66">
     <!-- 0 -->
     <g transform="translate(728.8175 664.339896) scale(0.09 -0.09)">
      <use xlink:href="#DejaVuSans-30"/>
     </g>
    </g>
    <g id="patch_69">
     <path d="M 770.963125 688.278125 
L 849.528125 688.278125 
L 849.528125 635.434792 
L 770.963125 635.434792 
z
" style="fill: #ffffff; stroke: #000000; stroke-linejoin: miter"/>
    </g>
    <g id="text_67">
     <!-- 0 -->
     <g transform="translate(807.3825 664.339896) scale(0.09 -0.09)">
      <use xlink:href="#DejaVuSans-30"/>
     </g>
    </g>
   </g>
  </g>
 </g>
 <defs>
  <clipPath id="pf0568f6c58">
   <rect x="30.103125" y="22.318125" width="392.825" height="317.06"/>
  </clipPath>
  <clipPath id="p1ab40df72b">
   <rect x="456.703125" y="22.318125" width="392.825" height="317.06"/>
  </clipPath>
  <clipPath id="p40a08d58e1">
   <rect x="30.103125" y="371.218125" width="392.825" height="317.06"/>
  </clipPath>
 </defs>
</svg>
